<?xml version="1.0" encoding="UTF-8"?>
<!DOCTYPE svg PUBLIC "-//W3C//DTD SVG 1.1//EN" "http://www.w3.org/Graphics/SVG/1.1/DTD/svg11.dtd">
<svg xmlns="http://www.w3.org/2000/svg" version="1.1" width="480px" height="480px" style="shape-rendering:geometricPrecision; text-rendering:geometricPrecision; image-rendering:optimizeQuality; fill-rule:evenodd; clip-rule:evenodd" xmlns:xlink="http://www.w3.org/1999/xlink">
<g><path style="opacity:0.989" fill="#a9a9a9" d="M 214.5,19.5 C 309.412,14.7017 382.245,52.035 433,131.5C 469.818,199.543 473.151,269.21 443,340.5C 406.016,415.106 346.183,458.606 263.5,471C 181.867,478.248 114.367,451.082 61,389.5C 12.2099,326.211 -1.45672,255.878 20,178.5C 45.1667,104 95,54.1667 169.5,29C 184.431,24.8486 199.431,21.6819 214.5,19.5 Z"/></g>
<g><path style="opacity:1" fill="#929292" d="M 221.5,61.5 C 284.943,58.4805 337.443,80.8138 379,128.5C 419.141,179.985 430.474,237.318 413,300.5C 391.272,361.894 349.439,402.728 287.5,423C 210.776,441.188 146.276,421.021 94,362.5C 49.9287,304.668 40.9287,241.668 67,173.5C 98.1815,108.154 149.682,70.8202 221.5,61.5 Z"/></g>
<g><path style="opacity:1" fill="#636363" d="M 222.5,99.5 C 236.045,98.6246 247.712,102.791 257.5,112C 286.953,113.782 304.119,129.282 309,158.5C 310.931,177.176 307.598,194.843 299,211.5C 287.346,224.945 280.846,240.612 279.5,258.5C 279.887,263.047 281.053,267.381 283,271.5C 285.175,272.255 287.341,273.088 289.5,274C 295.452,280.74 301.285,287.574 307,294.5C 307.333,299.5 307.667,304.5 308,309.5C 313.783,324.4 320.116,339.066 327,353.5C 330.112,361.947 332.279,370.614 333.5,379.5C 273.5,379.5 213.5,379.5 153.5,379.5C 155.693,371.281 159.36,363.781 164.5,357C 158.539,357.958 152.539,359.125 146.5,360.5C 146.167,360.167 145.833,359.833 145.5,359.5C 155.349,346.302 162.682,331.802 167.5,316C 192.742,304.587 219.076,296.587 246.5,292C 253.382,290.262 260.048,287.928 266.5,285C 243.905,290.482 221.238,295.982 198.5,301.5C 197.99,295.781 196.657,290.281 194.5,285C 182.509,285.289 170.509,285.289 158.5,285C 152.919,282.827 150.586,278.661 151.5,272.5C 151.527,268.394 152.193,264.394 153.5,260.5C 152.018,257.856 150.352,255.356 148.5,253C 148.703,250.594 149.703,248.594 151.5,247C 148.28,245.734 145.947,243.567 144.5,240.5C 149.927,231.398 147.26,226.565 136.5,226C 132.676,222.044 132.509,217.878 136,213.5C 142.554,206.617 148.721,199.45 154.5,192C 152.05,187.077 150.883,181.91 151,176.5C 155.6,167.726 160.433,159.059 165.5,150.5C 162.423,147.591 159.923,144.258 158,140.5C 157.448,137.581 158.115,134.914 160,132.5C 176.972,114.263 197.805,103.263 222.5,99.5 Z"/></g>
</svg>
