<?xml version="1.0" encoding="UTF-8"?>
<!DOCTYPE svg PUBLIC "-//W3C//DTD SVG 1.1//EN" "http://www.w3.org/Graphics/SVG/1.1/DTD/svg11.dtd">
<svg xmlns="http://www.w3.org/2000/svg" version="1.1" width="480px" height="480px" style="shape-rendering:geometricPrecision; text-rendering:geometricPrecision; image-rendering:optimizeQuality; fill-rule:evenodd; clip-rule:evenodd" xmlns:xlink="http://www.w3.org/1999/xlink">
<g><path style="opacity:0.989" fill="#a9a9a9" d="M 214.5,19.5 C 309.412,14.7017 382.245,52.035 433,131.5C 469.818,199.543 473.151,269.21 443,340.5C 406.016,415.106 346.183,458.606 263.5,471C 181.867,478.248 114.367,451.082 61,389.5C 12.2099,326.211 -1.45672,255.878 20,178.5C 45.1667,104 95,54.1667 169.5,29C 184.431,24.8486 199.431,21.6819 214.5,19.5 Z"/></g>
<g><path style="opacity:1" fill="#929292" d="M 221.5,61.5 C 284.943,58.4805 337.443,80.8138 379,128.5C 419.141,179.985 430.474,237.318 413,300.5C 391.272,361.894 349.439,402.728 287.5,423C 210.776,441.188 146.276,421.021 94,362.5C 49.9287,304.668 40.9287,241.668 67,173.5C 98.1815,108.154 149.682,70.8202 221.5,61.5 Z"/></g>
<g><path style="opacity:1" fill="#636363" d="M 166.5,171.5 C 170.167,171.5 173.833,171.5 177.5,171.5C 177.5,179.833 177.5,188.167 177.5,196.5C 191.249,197.35 204.582,200.183 217.5,205C 218.482,213.081 218.816,221.248 218.5,229.5C 214.5,229.5 210.5,229.5 206.5,229.5C 204.967,217.465 198.3,209.965 186.5,207C 183.487,206.498 180.487,205.998 177.5,205.5C 177.5,219.5 177.5,233.5 177.5,247.5C 190.22,249.573 202.22,253.74 213.5,260C 225.007,268.526 228.507,279.693 224,293.5C 218.885,303.945 210.719,310.779 199.5,314C 192.315,316.142 184.982,317.309 177.5,317.5C 177.5,325.833 177.5,334.167 177.5,342.5C 173.833,342.5 170.167,342.5 166.5,342.5C 166.5,334.167 166.5,325.833 166.5,317.5C 151.322,317.039 136.655,314.039 122.5,308.5C 121.502,299.859 121.169,291.192 121.5,282.5C 125.5,282.5 129.5,282.5 133.5,282.5C 133.507,294 138.84,301.833 149.5,306C 155.049,307.677 160.715,308.51 166.5,308.5C 166.5,293.5 166.5,278.5 166.5,263.5C 151.178,261.454 137.678,255.454 126,245.5C 116.662,223.666 123.162,208.499 145.5,200C 152.363,197.967 159.363,196.801 166.5,196.5C 166.5,188.167 166.5,179.833 166.5,171.5 Z"/></g>
<g><path style="opacity:1" fill="#636363" d="M 309.5,175.5 C 315.167,175.5 320.833,175.5 326.5,175.5C 326.5,218.833 326.5,262.167 326.5,305.5C 335.833,305.5 345.167,305.5 354.5,305.5C 354.5,308.5 354.5,311.5 354.5,314.5C 328.5,314.5 302.5,314.5 276.5,314.5C 276.5,311.5 276.5,308.5 276.5,305.5C 285.833,305.5 295.167,305.5 304.5,305.5C 304.833,267.494 304.5,229.494 303.5,191.5C 293.006,196.913 282.673,202.579 272.5,208.5C 271.167,204.5 271.167,200.5 272.5,196.5C 285.058,189.726 297.392,182.726 309.5,175.5 Z"/></g>
<g><path style="opacity:1" fill="#919191" d="M 162.5,205.5 C 163.833,205.5 165.167,205.5 166.5,205.5C 166.667,218.504 166.5,231.504 166,244.5C 157.793,242.565 150.793,238.565 145,232.5C 140.941,223.57 142.774,216.07 150.5,210C 154.496,208.18 158.496,206.68 162.5,205.5 Z"/></g>
<g><path style="opacity:1" fill="#919191" d="M 177.5,267.5 C 187.208,268.601 195.041,272.934 201,280.5C 205.595,294.078 201.095,302.911 187.5,307C 184.207,307.826 180.874,308.326 177.5,308.5C 177.5,294.833 177.5,281.167 177.5,267.5 Z"/></g>
</svg>
